<svg width="107" height="25" viewBox="0 0 107 25" fill="none" xmlns="http://www.w3.org/2000/svg">
<rect width="107" height="25" fill="#F5F5F5"/>
<g clip-path="url(#clip0_1_2)">
<path d="M20.6973 11.7959L23.0363 6.37909C23.3308 5.69703 24.1478 5.43135 24.7785 5.81335C25.3088 6.13455 25.5186 6.80604 25.2684 7.37706L22.9985 12.5639C22.5959 13.4852 21.6955 14.0787 20.7025 14.0787C19.694 14.0787 18.7831 13.4667 18.3896 12.5255L13.9267 1.84261L9.16795 12.5678C8.7601 13.4878 7.85709 14.08 6.86286 14.08C5.84388 14.08 4.92393 13.4587 4.53041 12.5057L0.0974398 1.75009C-0.245262 0.918663 0.356746 0 1.24542 0C1.75101 0 2.20577 0.309305 2.39732 0.782516L6.85765 11.7959L11.3141 1.71308C11.7741 0.670161 12.7956 0 13.9215 0C15.0721 0 16.1106 0.700563 16.5562 1.77784L20.6973 11.7959Z" fill="url(#paint0_linear_1_2)"/>
<path d="M29.1798 0C29.8809 0 30.4485 0.573669 30.4485 1.28216V12.7978C30.4485 13.5063 29.8809 14.08 29.1798 14.08C28.4788 14.08 27.9111 13.5063 27.9111 12.7978V1.28216C27.9111 0.573669 28.4801 0 29.1798 0Z" fill="#333333"/>
<path d="M35.5381 1.28216V11.7959H45.1699C45.7977 11.7959 46.3071 12.3074 46.3071 12.9379C46.3071 13.5685 45.7977 14.08 45.1699 14.08H34.4864C33.6572 14.08 32.986 13.4045 32.986 12.5731V1.28216C32.986 0.573669 33.5572 0 34.2627 0C34.9681 0 35.5394 0.573669 35.5394 1.28216H35.5381Z" fill="#333333"/>
<path d="M50.7625 1.28216V11.7959H60.3944C61.0222 11.7959 61.5315 12.3074 61.5315 12.9379C61.5315 13.5685 61.0222 14.08 60.3944 14.08H49.7108C48.8816 14.08 48.2104 13.4045 48.2104 12.5731V1.28216C48.2104 0.573669 48.7816 0 49.4858 0C50.1913 0 50.7625 0.573669 50.7625 1.28216Z" fill="#333333"/>
<path d="M64.7029 0C65.4039 0 65.9715 0.573669 65.9715 1.28216V12.7978C65.9715 13.5063 65.4039 14.08 64.7029 14.08C64.0018 14.08 63.4342 13.5063 63.4342 12.7978V1.28216C63.4342 0.573669 64.0018 0 64.7029 0Z" fill="#333333"/>
<path d="M83.13 11.637V1.28228C83.13 0.573722 83.6907 0 84.3831 0C85.0755 0 85.6362 0.573722 85.6362 1.28228V11.8023C85.6362 13.0608 84.6402 14.08 83.4104 14.08C82.5435 14.08 81.7142 13.7204 81.1096 13.0846L71.0152 2.44295V12.7977C71.0152 13.5063 70.4545 14.08 69.7621 14.08C69.0697 14.08 68.509 13.5063 68.509 12.7977V2.2777C68.509 1.01922 69.5063 0 70.7348 0C71.6017 0 72.431 0.359568 73.0356 0.995422L83.13 11.637Z" fill="#333333"/>
<path d="M103.431 11.637V1.28228C103.431 0.573722 103.991 0 104.682 0C105.375 0 105.935 0.573722 105.935 1.28228V11.8023C105.935 13.0608 104.939 14.08 103.71 14.08C102.843 14.08 102.013 13.7204 101.409 13.0846L91.3144 2.44295V12.7977C91.3144 13.5063 90.7537 14.08 90.0613 14.08C89.3689 14.08 88.8082 13.5063 88.8082 12.7977V2.2777C88.8095 1.01922 89.8055 0 91.0354 0C91.9022 0 92.7315 0.359568 93.3361 0.995422L103.431 11.637Z" fill="#333333"/>
<path d="M20.2993 21.1201H21.2344L21.8968 23.4909H21.907L22.5577 21.1201H23.471V24.3201H22.9034V21.658H22.8932L22.1375 24.3201H21.6327L20.877 21.658H20.8668V24.3201H20.2993V21.1201Z" fill="#333333"/>
<path d="M24.1052 22.7201C24.1052 21.6199 24.492 21.1201 25.3746 21.1201C26.2572 21.1201 26.6426 21.6211 26.6426 22.7201C26.6426 23.8191 26.2558 24.3201 25.3746 24.3201C24.4935 24.3201 24.1052 23.8191 24.1052 22.7201ZM26.0302 22.7069C26.0302 21.6714 25.7405 21.4905 25.3746 21.4905C25.0087 21.4905 24.719 21.6714 24.719 22.7069C24.719 23.7424 25.0087 23.9498 25.3746 23.9498C25.7405 23.9498 26.0302 23.764 26.0302 22.7069Z" fill="#333333"/>
<path d="M27.277 21.1201H27.7442L28.2114 23.6751H28.2189L28.7129 21.1201H29.1801L28.4857 24.3201H27.9264L27.2781 21.1201H27.277Z" fill="#333333"/>
<path d="M30.4489 21.1201H32.313V21.5506H30.9991V22.4377H32.2351V22.8682H30.9991V23.8896H32.3519V24.3201H30.4489V21.1226V21.1201Z" fill="#333333"/>
<path d="M34.9724 21.5508H34.2548V21.1201H36.1578V21.5508H35.4531V24.3201H34.9724V21.5508Z" fill="#333333"/>
<path d="M37.426 21.1201H37.9211V22.4014H38.8339V21.1201H39.329V24.3201H38.8339V22.8322H37.9211V24.3201H37.426V21.1201Z" fill="#333333"/>
<path d="M40.5978 21.1214H41.6314C42.0416 21.1214 42.3744 21.3505 42.3744 21.9456C42.3744 22.3578 42.2103 22.6765 41.8867 22.7301V22.7388C42.1818 22.7699 42.3299 22.9455 42.3459 23.3925C42.3504 23.6029 42.3504 23.8495 42.3618 24.0425C42.3744 24.1993 42.4393 24.2716 42.5009 24.3201H41.9721C41.9265 24.2616 41.906 24.1632 41.8946 24.0375C41.8867 23.9428 41.8821 23.8445 41.8821 23.7511C41.8821 23.6577 41.8775 23.5494 41.8741 23.4323C41.8616 23.0825 41.7636 22.9305 41.4479 22.9305H41.0662V24.3201H40.599V21.1201L40.5978 21.1214ZM41.4388 22.547C41.7385 22.547 41.906 22.3503 41.906 22.0266C41.906 21.6854 41.775 21.5061 41.4627 21.5061H41.065V22.5458H41.4388V22.547Z" fill="#333333"/>
<path d="M43.7697 22.7201C43.7697 21.6199 44.0596 21.1201 44.7212 21.1201C45.3828 21.1201 45.6727 21.6211 45.6727 22.7201C45.6727 23.8191 45.3828 24.3201 44.7212 24.3201C44.0596 24.3201 43.7697 23.8191 43.7697 22.7201ZM45.2126 22.7069C45.2126 21.6714 44.9955 21.4905 44.7212 21.4905C44.4469 21.4905 44.2298 21.6714 44.2298 22.7069C44.2298 23.7424 44.4469 23.9498 44.7212 23.9498C44.9955 23.9498 45.2126 23.764 45.2126 22.7069Z" fill="#333333"/>
<path d="M47.4388 21.1201V23.3703C47.4388 23.7707 47.596 23.9416 47.8961 23.9416C48.1961 23.9416 48.3485 23.7707 48.3485 23.3703V21.1201H48.8445V23.3312C48.8445 24.0564 48.4877 24.3201 47.8949 24.3201C47.3021 24.3201 46.9415 24.0564 46.9415 23.3312V21.1201H47.4375H47.4388Z" fill="#333333"/>
<path d="M51.5375 23.9018H51.5267C51.3535 24.1907 51.1262 24.3201 50.6577 24.3201C49.7887 24.3201 49.4779 23.8191 49.4779 22.7201C49.4779 21.6211 49.8784 21.1201 50.7969 21.1201C51.7926 21.1201 51.9596 21.729 51.9596 22.0094V22.0657H51.3582V21.9926C51.3582 21.7637 51.236 21.4917 50.8015 21.4917C50.367 21.4917 50.1119 21.7242 50.1119 22.7081C50.1119 23.6921 50.3237 23.951 50.752 23.951C51.236 23.9558 51.4138 23.6837 51.4138 23.0102H50.7458V22.6386H52.0153V24.2602H51.536V23.9018H51.5375Z" fill="#333333"/>
<path d="M52.6505 21.1201H53.3106V22.4014H54.5277V21.1201H55.1878V24.3201H54.5277V22.8322H53.3106V24.3201H52.6505V21.1201Z" fill="#333333"/>
<path d="M57.7253 21.1201H58.3596V24.3201H57.7253V21.1201Z" fill="#333333"/>
<path d="M59.6282 21.1201H60.2081L61.072 23.5046H61.0801V21.1201H61.5313V24.3201H60.9514L60.0875 21.8734H60.0793V24.3201H59.6282V21.1201Z" fill="#333333"/>
<path d="M62.7994 21.1201H63.3792L64.2432 23.5046H64.2513V21.1201H64.7024V24.3201H64.1226L63.2586 21.8734H63.2505V24.3201H62.7994V21.1201Z" fill="#333333"/>
<path d="M65.9713 22.7201C65.9713 21.6199 66.2612 21.1201 66.9228 21.1201C67.5843 21.1201 67.8743 21.6211 67.8743 22.7201C67.8743 23.8191 67.5843 24.3201 66.9228 24.3201C66.2612 24.3201 65.9713 23.8191 65.9713 22.7201ZM67.4142 22.7069C67.4142 21.6714 67.197 21.4905 66.9228 21.4905C66.6485 21.4905 66.4313 21.6714 66.4313 22.7069C66.4313 23.7424 66.6485 23.9498 66.9228 23.9498C67.197 23.9498 67.4142 23.764 67.4142 22.7069Z" fill="#333333"/>
<path d="M68.509 21.1201H69.1319L69.7548 23.6751H69.7648L70.4235 21.1201H71.0464L70.1206 24.3201H69.3748L68.5104 21.1201H68.509Z" fill="#333333"/>
<path d="M72.6389 21.1201H73.3284L74.2175 24.3201H73.6554L73.4479 23.5357H72.4603L72.2423 24.3201H71.6802L72.6402 21.1201H72.6389ZM73.3573 23.1285L72.9699 21.5509H72.9607L72.5588 23.1285H73.3573Z" fill="#333333"/>
<path d="M74.9362 21.5508H74.2186V21.1201H76.1216V21.5508H75.4169V24.3201H74.9362V21.5508Z" fill="#333333"/>
<path d="M77.3891 21.1201H78.0234V24.3201H77.3891V21.1201Z" fill="#333333"/>
<path d="M78.658 22.7201C78.658 21.6199 79.0445 21.1201 79.9266 21.1201C80.8087 21.1201 81.1953 21.6211 81.1953 22.7201C81.1953 23.8191 80.8087 24.3201 79.9266 24.3201C79.0445 24.3201 78.658 23.8191 78.658 22.7201ZM80.5819 22.7069C80.5819 21.6714 80.2923 21.4905 79.9266 21.4905C79.561 21.4905 79.2714 21.6714 79.2714 22.7069C79.2714 23.7424 79.561 23.9498 79.9266 23.9498C80.2923 23.9498 80.5819 23.764 80.5819 22.7069Z" fill="#333333"/>
<path d="M81.8298 21.1201H82.6029L83.7549 23.5046H83.7657V21.1201H84.3672V24.3201H83.594L82.4421 21.8734H82.4313V24.3201H81.8298V21.1201Z" fill="#333333"/>
</g>
<defs>
<linearGradient id="paint0_linear_1_2" x1="-0.000288762" y1="7.04" x2="25.374" y2="7.04" gradientUnits="userSpaceOnUse">
<stop stop-color="#F92892"/>
<stop offset="0.01" stop-color="#F72793"/>
<stop offset="0.47" stop-color="#CD12C5"/>
<stop offset="0.81" stop-color="#B304E5"/>
<stop offset="1" stop-color="#AA00F1"/>
</linearGradient>
<clipPath id="clip0_1_2">
<rect width="107" height="25" fill="white"/>
</clipPath>
</defs>
</svg>
